<svg width="33" height="32" viewBox="0 0 33 32" fill="none" xmlns="http://www.w3.org/2000/svg">
<path opacity="0.4" d="M29.8333 16.0067C29.8333 23.3519 23.8488 29.3336 16.5 29.3336C9.15121 29.3336 3.16666 23.3519 3.16666 16.0067C3.16666 8.64858 9.15121 2.66691 16.5 2.66691C23.8488 2.66691 29.8333 8.64858 29.8333 16.0067Z" fill="#F2F3F6"/>
<path d="M21.8333 16.0067C21.8333 16.3437 21.7273 16.682 21.5152 16.9529C21.4754 17.006 21.2898 17.225 21.1439 17.3676L21.0644 17.4454C19.9508 18.6261 17.1799 20.4017 15.7746 20.9707C15.7746 20.9836 14.9394 21.3219 14.5417 21.3336H14.4886C13.8788 21.3336 13.3087 20.9979 13.017 20.4535C12.858 20.1542 12.7121 19.2858 12.6989 19.2741C12.5795 18.4952 12.5 17.3028 12.5 15.9938C12.5 14.6212 12.5795 13.3757 12.7254 12.611C12.7254 12.5981 12.8712 11.8982 12.964 11.6649C13.1098 11.3292 13.375 11.0428 13.7064 10.8613C13.9716 10.733 14.25 10.6669 14.5417 10.6669C14.8466 10.6812 15.4167 10.8743 15.642 10.965C17.1269 11.5353 19.964 13.4016 21.0511 14.5422C21.2367 14.7236 21.4356 14.9452 21.4886 14.9958C21.714 15.2809 21.8333 15.6309 21.8333 16.0067Z" fill="#F2F3F6"/>
</svg>
