<svg width="20" height="20" viewBox="0 0 20 20" fill="none" xmlns="http://www.w3.org/2000/svg">
<path opacity="0.4" d="M14.3403 0H5.67031C2.28031 0 0.000305176 2.38 0.000305176 5.92V14.09C0.000305176 17.62 2.28031 20 5.67031 20H14.3403C17.7303 20 20.0003 17.62 20.0003 14.09V5.92C20.0003 2.38 17.7303 0 14.3403 0Z" fill="#0B6CE3"/>
<path d="M8.81341 13.248C8.58941 13.248 8.36541 13.163 8.19441 12.992L5.82141 10.619C5.47941 10.277 5.47941 9.72297 5.82141 9.38196C6.16341 9.03996 6.71641 9.03896 7.05841 9.38096L8.81341 11.136L12.9414 7.00796C13.2834 6.66596 13.8364 6.66596 14.1784 7.00796C14.5204 7.34996 14.5204 7.90396 14.1784 8.24596L9.43241 12.992C9.26141 13.163 9.03741 13.248 8.81341 13.248Z" fill="#0B6CE3"/>
</svg>
