<svg width="20" height="20" viewBox="0 0 20 20" fill="none" xmlns="http://www.w3.org/2000/svg">
<path opacity="0.4" d="M14.3403 0H5.6703C2.2803 0 0.000297546 2.38 0.000297546 5.92V14.09C0.000297546 17.62 2.2803 20 5.6703 20H14.3403C17.7303 20 20.0003 17.62 20.0003 14.09V5.92C20.0003 2.38 17.7303 0 14.3403 0Z" fill="#7A7A8A"/>
<path d="M8.8134 13.248C8.5894 13.248 8.3654 13.163 8.1944 12.992L5.8214 10.619C5.4794 10.277 5.4794 9.72297 5.8214 9.38196C6.1634 9.03996 6.7164 9.03896 7.0584 9.38096L8.8134 11.136L12.9414 7.00796C13.2834 6.66596 13.8364 6.66596 14.1784 7.00796C14.5204 7.34996 14.5204 7.90396 14.1784 8.24596L9.4324 12.992C9.2614 13.163 9.0374 13.248 8.8134 13.248Z" fill="#7A7A8A"/>
</svg>
